<svg xmlns="http://www.w3.org/2000/svg" width="8.817" height="4.806" viewBox="0 0 8.817 4.806" fill="none">
  <path d="M 3.862 4.582 L 0.171 0.89 C 0.114 0.833 0.071 0.772 0.043 0.707 C 0.014 0.641 0 0.576 0 0.509 C 0 0.377 0.048 0.259 0.145 0.155 C 0.241 0.052 0.367 0 0.522 0 L 8.295 0 C 8.45 0 8.575 0.053 8.672 0.159 C 8.768 0.265 8.817 0.386 8.817 0.522 C 8.817 0.546 8.76 0.669 8.646 0.889 L 4.955 4.582 C 4.88 4.657 4.794 4.713 4.697 4.75 C 4.6 4.787 4.504 4.806 4.408 4.806 C 4.313 4.806 4.217 4.787 4.12 4.75 C 4.022 4.713 3.936 4.657 3.862 4.582 Z" fill="currentColor" fill-rule="nonzero"/>
</svg>
