<svg xmlns="http://www.w3.org/2000/svg" width="13.772" height="10.219" viewBox="0 0 13.772 10.219" fill="none">
  <path d="M 4.61 7.684 L 11.977 0.317 C 12.187 0.106 12.433 0 12.715 0 C 12.997 0 13.244 0.106 13.455 0.317 C 13.666 0.528 13.772 0.774 13.772 1.055 C 13.772 1.336 13.67 1.579 13.465 1.784 L 5.361 9.902 C 5.151 10.113 4.905 10.219 4.623 10.219 C 4.341 10.219 4.094 10.113 3.883 9.902 L 0.32 6.339 C 0.109 6.128 0.002 5.883 0 5.603 C -0.002 5.324 0.103 5.078 0.314 4.867 C 0.525 4.656 0.772 4.55 1.054 4.55 C 1.336 4.55 1.58 4.656 1.786 4.867 L 4.61 7.684 Z" fill="currentColor" fill-rule="nonzero"/>
</svg>
