<svg xmlns="http://www.w3.org/2000/svg" width="6.825" height="11.563" viewBox="0 0 6.825 11.563" fill="none">
  <path d="M 4.321 5.787 L 0.317 1.783 C 0.106 1.572 0 1.327 0 1.05 C 0 0.772 0.106 0.528 0.317 0.317 C 0.528 0.106 0.772 0 1.05 0 C 1.327 0 1.575 0.108 1.792 0.325 L 6.527 5.061 C 6.622 5.163 6.696 5.276 6.748 5.401 C 6.799 5.526 6.825 5.656 6.825 5.793 C 6.825 5.929 6.799 6.059 6.748 6.184 C 6.696 6.309 6.622 6.419 6.527 6.514 L 1.792 11.25 C 1.575 11.467 1.332 11.571 1.063 11.563 C 0.793 11.554 0.553 11.444 0.342 11.233 C 0.131 11.022 0.025 10.777 0.025 10.5 C 0.025 10.222 0.131 9.978 0.342 9.767 L 4.321 5.787 Z" fill="currentColor" fill-rule="nonzero"/>
</svg>
