<svg xmlns="http://www.w3.org/2000/svg" width="16.857" height="16.886" viewBox="0 0 16.857 16.886" fill="none">
  <path d="M 8.496 16.886 C 6.119 16.886 4.108 16.066 2.465 14.424 C 0.822 12.783 0 10.774 0 8.396 C 0 6.331 0.656 4.507 1.968 2.923 C 3.281 1.34 4.993 0.376 7.104 0.032 C 7.342 -0.023 7.558 -0.007 7.752 0.081 C 7.946 0.169 8.101 0.29 8.215 0.444 C 8.33 0.598 8.401 0.783 8.431 0.999 C 8.459 1.215 8.428 1.432 8.335 1.652 C 8.153 2.019 8.009 2.404 7.902 2.805 C 7.795 3.207 7.741 3.607 7.741 4.005 C 7.741 5.45 8.24 6.67 9.237 7.665 C 10.234 8.66 11.457 9.157 12.905 9.157 C 13.31 9.157 13.714 9.107 14.117 9.008 C 14.519 8.909 14.901 8.767 15.265 8.581 C 15.48 8.485 15.689 8.455 15.893 8.491 C 16.097 8.528 16.269 8.6 16.409 8.707 C 16.565 8.814 16.686 8.962 16.774 9.15 C 16.862 9.339 16.88 9.551 16.827 9.786 C 16.522 11.86 15.581 13.562 14.005 14.891 C 12.43 16.221 10.593 16.886 8.496 16.886 Z M 8.471 14.811 C 9.749 14.811 10.905 14.468 11.939 13.781 C 12.972 13.094 13.742 12.191 14.249 11.074 C 13.955 11.141 13.671 11.194 13.396 11.232 C 13.122 11.27 12.848 11.285 12.575 11.277 C 10.686 11.209 9.077 10.515 7.748 9.193 C 6.419 7.872 5.716 6.25 5.64 4.326 C 5.636 4.06 5.652 3.789 5.688 3.512 C 5.725 3.235 5.778 2.952 5.85 2.662 C 4.736 3.17 3.833 3.942 3.142 4.977 C 2.451 6.012 2.106 7.167 2.106 8.44 C 2.106 10.21 2.727 11.714 3.97 12.953 C 5.213 14.192 6.713 14.811 8.471 14.811 Z" fill="currentColor" fill-rule="nonzero"/>
</svg>
