<svg xmlns="http://www.w3.org/2000/svg" width="13.942" height="13.937" viewBox="0 0 13.942 13.937" fill="none">
  <path d="M 0.844 13.937 C 0.61 13.937 0.411 13.856 0.246 13.695 C 0.082 13.533 0 13.335 0 13.101 L 0 11.235 C 0 11.013 0.039 10.8 0.118 10.597 C 0.197 10.394 0.322 10.207 0.493 10.036 L 10.075 0.45 C 10.23 0.291 10.399 0.177 10.582 0.106 C 10.765 0.035 10.957 0 11.158 0 C 11.355 0 11.547 0.035 11.732 0.106 C 11.917 0.177 12.09 0.29 12.252 0.445 L 13.493 1.671 C 13.648 1.829 13.761 2.002 13.834 2.189 C 13.906 2.375 13.942 2.567 13.942 2.762 C 13.942 2.967 13.906 3.163 13.833 3.351 C 13.761 3.539 13.647 3.71 13.493 3.862 L 3.911 13.444 C 3.74 13.615 3.553 13.74 3.351 13.819 C 3.149 13.898 2.936 13.937 2.715 13.937 L 0.844 13.937 Z M 11.175 3.8 L 12.208 2.772 L 11.171 1.729 L 10.133 2.762 L 11.175 3.8 Z" fill="currentColor" fill-rule="nonzero"/>
</svg>
