<svg xmlns="http://www.w3.org/2000/svg" width="20.325" height="20.325" viewBox="0 0 20.325 20.325" fill="none">
  <path d="M 3.826 5.275 C 3.425 5.275 3.075 5.134 2.775 4.851 C 2.475 4.568 2.325 4.226 2.325 3.826 C 2.325 3.425 2.473 3.075 2.77 2.775 C 3.066 2.475 3.417 2.325 3.822 2.325 C 4.227 2.325 4.57 2.473 4.852 2.77 C 5.134 3.066 5.275 3.417 5.275 3.822 C 5.275 4.227 5.134 4.57 4.851 4.852 C 4.568 5.134 4.226 5.275 3.826 5.275 Z M 7.853 2.975 C 7.448 2.975 7.105 2.834 6.823 2.551 C 6.541 2.268 6.4 1.926 6.4 1.526 C 6.4 1.125 6.541 0.771 6.824 0.463 C 7.107 0.154 7.449 0 7.849 0 C 8.25 0 8.596 0.154 8.888 0.463 C 9.179 0.771 9.325 1.125 9.325 1.526 C 9.325 1.926 9.181 2.268 8.893 2.551 C 8.605 2.834 8.258 2.975 7.853 2.975 Z M 12.501 2.95 C 12.1 2.95 11.754 2.809 11.463 2.526 C 11.171 2.243 11.025 1.901 11.025 1.501 C 11.025 1.1 11.169 0.754 11.457 0.463 C 11.745 0.171 12.092 0.025 12.497 0.025 C 12.902 0.025 13.245 0.172 13.527 0.465 C 13.809 0.758 13.95 1.104 13.95 1.504 C 13.95 1.904 13.809 2.245 13.526 2.527 C 13.243 2.809 12.901 2.95 12.501 2.95 Z M 16.503 5.275 C 16.098 5.275 15.755 5.134 15.473 4.851 C 15.191 4.568 15.05 4.226 15.05 3.826 C 15.05 3.425 15.191 3.079 15.474 2.788 C 15.757 2.496 16.099 2.35 16.499 2.35 C 16.9 2.35 17.25 2.496 17.55 2.789 C 17.85 3.081 18 3.428 18 3.829 C 18 4.229 17.852 4.57 17.555 4.852 C 17.259 5.134 16.908 5.275 16.503 5.275 Z M 18.853 9.325 C 18.448 9.325 18.105 9.181 17.823 8.893 C 17.541 8.605 17.4 8.259 17.4 7.855 C 17.4 7.452 17.541 7.104 17.824 6.813 C 18.107 6.521 18.449 6.375 18.849 6.375 C 19.25 6.375 19.596 6.519 19.888 6.807 C 20.179 7.095 20.325 7.441 20.325 7.845 C 20.325 8.248 20.181 8.596 19.893 8.888 C 19.605 9.179 19.258 9.325 18.853 9.325 Z M 18.871 13.95 C 18.471 13.95 18.13 13.809 17.848 13.526 C 17.566 13.243 17.425 12.901 17.425 12.501 C 17.425 12.1 17.566 11.754 17.849 11.463 C 18.132 11.171 18.474 11.025 18.874 11.025 C 19.275 11.025 19.617 11.169 19.9 11.457 C 20.183 11.745 20.325 12.092 20.325 12.497 C 20.325 12.902 20.183 13.245 19.898 13.527 C 19.613 13.809 19.271 13.95 18.871 13.95 Z M 16.528 18.025 C 16.123 18.025 15.78 17.877 15.498 17.58 C 15.216 17.284 15.075 16.933 15.075 16.528 C 15.075 16.123 15.216 15.78 15.499 15.498 C 15.782 15.216 16.124 15.075 16.524 15.075 C 16.925 15.075 17.275 15.216 17.575 15.499 C 17.875 15.782 18.025 16.124 18.025 16.524 C 18.025 16.925 17.877 17.275 17.58 17.575 C 17.284 17.875 16.933 18.025 16.528 18.025 Z M 12.501 20.325 C 12.1 20.325 11.754 20.178 11.463 19.885 C 11.171 19.592 11.025 19.246 11.025 18.846 C 11.025 18.446 11.169 18.105 11.457 17.823 C 11.745 17.541 12.092 17.4 12.497 17.4 C 12.902 17.4 13.245 17.541 13.527 17.824 C 13.809 18.107 13.95 18.449 13.95 18.849 C 13.95 19.25 13.809 19.596 13.526 19.888 C 13.243 20.179 12.901 20.325 12.501 20.325 Z M 7.853 20.325 C 7.448 20.325 7.105 20.178 6.823 19.885 C 6.541 19.592 6.4 19.246 6.4 18.846 C 6.4 18.446 6.541 18.105 6.824 17.823 C 7.107 17.541 7.449 17.4 7.849 17.4 C 8.25 17.4 8.596 17.541 8.888 17.824 C 9.179 18.107 9.325 18.449 9.325 18.849 C 9.325 19.25 9.181 19.596 8.893 19.888 C 8.605 20.179 8.258 20.325 7.853 20.325 Z M 3.83 18.025 C 3.427 18.025 3.075 17.881 2.775 17.593 C 2.475 17.305 2.325 16.959 2.325 16.555 C 2.325 16.152 2.473 15.8 2.77 15.5 C 3.066 15.2 3.416 15.05 3.82 15.05 C 4.223 15.05 4.571 15.198 4.863 15.495 C 5.154 15.791 5.3 16.141 5.3 16.545 C 5.3 16.948 5.156 17.296 4.868 17.588 C 4.58 17.879 4.234 18.025 3.83 18.025 Z M 1.474 13.975 C 1.075 13.975 0.729 13.829 0.438 13.536 C 0.146 13.244 0 12.898 0 12.499 C 0 12.1 0.144 11.754 0.432 11.463 C 0.72 11.171 1.066 11.025 1.47 11.025 C 1.873 11.025 2.221 11.169 2.513 11.457 C 2.804 11.745 2.95 12.091 2.95 12.495 C 2.95 12.898 2.804 13.246 2.511 13.538 C 2.219 13.829 1.873 13.975 1.474 13.975 Z M 1.501 9.325 C 1.1 9.325 0.754 9.181 0.463 8.893 C 0.171 8.605 0.025 8.258 0.025 7.853 C 0.025 7.448 0.169 7.105 0.457 6.823 C 0.745 6.541 1.092 6.4 1.497 6.4 C 1.902 6.4 2.245 6.541 2.527 6.824 C 2.809 7.107 2.95 7.449 2.95 7.849 C 2.95 8.25 2.809 8.596 2.526 8.888 C 2.243 9.179 1.901 9.325 1.501 9.325 Z" fill="currentColor" fill-rule="nonzero"/>
</svg>
