<svg xmlns="http://www.w3.org/2000/svg" width="19.607" height="19.607" viewBox="0 0 19.607 19.607" fill="none">
  <path d="M 9.798 14.693 C 10.077 14.693 10.312 14.598 10.505 14.408 C 10.697 14.219 10.793 13.984 10.793 13.703 L 10.793 9.593 C 10.793 9.313 10.699 9.077 10.51 8.888 C 10.321 8.698 10.087 8.603 9.808 8.603 C 9.53 8.603 9.294 8.698 9.102 8.888 C 8.91 9.077 8.813 9.313 8.813 9.593 L 8.813 13.703 C 8.813 13.984 8.908 14.219 9.097 14.408 C 9.285 14.598 9.519 14.693 9.798 14.693 Z M 9.798 6.923 C 10.085 6.923 10.328 6.826 10.526 6.631 C 10.724 6.437 10.823 6.196 10.823 5.909 C 10.823 5.621 10.726 5.379 10.531 5.181 C 10.337 4.983 10.096 4.884 9.808 4.884 C 9.521 4.884 9.278 4.981 9.08 5.175 C 8.883 5.37 8.784 5.611 8.784 5.898 C 8.784 6.185 8.881 6.428 9.075 6.626 C 9.27 6.824 9.511 6.923 9.798 6.923 Z M 9.81 19.607 C 8.457 19.607 7.185 19.351 5.995 18.841 C 4.804 18.331 3.762 17.629 2.87 16.737 C 1.977 15.844 1.276 14.803 0.765 13.613 C 0.255 12.423 0 11.149 0 9.792 C 0 8.434 0.255 7.164 0.765 5.982 C 1.276 4.8 1.977 3.762 2.87 2.87 C 3.762 1.977 4.804 1.276 5.993 0.765 C 7.183 0.255 8.457 0 9.815 0 C 11.172 0 12.442 0.255 13.624 0.765 C 14.807 1.276 15.844 1.977 16.737 2.87 C 17.629 3.762 18.331 4.802 18.841 5.988 C 19.351 7.174 19.607 8.443 19.607 9.796 C 19.607 11.149 19.351 12.421 18.841 13.612 C 18.331 14.802 17.629 15.844 16.737 16.737 C 15.844 17.629 14.805 18.331 13.619 18.841 C 12.433 19.351 11.163 19.607 9.81 19.607 Z M 9.803 17.531 C 11.954 17.531 13.78 16.781 15.281 15.28 C 16.781 13.78 17.531 11.954 17.531 9.803 C 17.531 7.653 16.781 5.827 15.281 4.326 C 13.78 2.825 11.954 2.075 9.803 2.075 C 7.653 2.075 5.827 2.825 4.326 4.326 C 2.825 5.827 2.075 7.653 2.075 9.803 C 2.075 11.954 2.825 13.78 4.326 15.28 C 5.827 16.781 7.653 17.531 9.803 17.531 Z" fill="currentColor" fill-rule="nonzero"/>
</svg>
