<svg xmlns="http://www.w3.org/2000/svg" width="11.563" height="6.825" viewBox="0 0 11.563 6.825" fill="none">
  <path d="M 5.77 6.825 C 5.634 6.825 5.504 6.799 5.379 6.747 C 5.254 6.696 5.144 6.622 5.049 6.527 L 0.313 1.791 C 0.096 1.575 -0.008 1.327 0 1.05 C 0.009 0.772 0.119 0.528 0.33 0.317 C 0.541 0.106 0.785 0 1.063 0 C 1.34 0 1.585 0.106 1.796 0.317 L 5.775 4.321 L 9.78 0.317 C 9.991 0.106 10.235 0.004 10.513 0.012 C 10.79 0.021 11.035 0.131 11.246 0.342 C 11.457 0.553 11.563 0.797 11.563 1.075 C 11.563 1.352 11.455 1.599 11.238 1.815 L 6.502 6.527 C 6.4 6.622 6.287 6.696 6.162 6.747 C 6.037 6.799 5.906 6.825 5.77 6.825 Z" fill="currentColor" fill-rule="nonzero"/>
</svg>
