<svg xmlns="http://www.w3.org/2000/svg" width="21.875" height="21.875" viewBox="0 0 21.875 21.875" fill="none">
  <path d="M 10.938 13.663 C 11.695 13.663 12.339 13.398 12.868 12.868 C 13.398 12.339 13.663 11.695 13.663 10.938 C 13.663 10.18 13.398 9.536 12.868 9.007 C 12.339 8.477 11.695 8.213 10.938 8.213 C 10.18 8.213 9.536 8.477 9.007 9.007 C 8.477 9.536 8.213 10.18 8.213 10.938 C 8.213 11.695 8.477 12.339 9.007 12.868 C 9.536 13.398 10.18 13.663 10.938 13.663 Z M 10.932 15.738 C 9.602 15.738 8.471 15.269 7.538 14.332 C 6.604 13.395 6.138 12.261 6.138 10.932 C 6.138 9.602 6.606 8.471 7.543 7.538 C 8.48 6.604 9.614 6.138 10.943 6.138 C 12.273 6.138 13.404 6.606 14.338 7.543 C 15.271 8.48 15.738 9.614 15.738 10.943 C 15.738 12.273 15.269 13.404 14.332 14.338 C 13.395 15.271 12.261 15.738 10.932 15.738 Z M 1.038 11.975 C 0.747 11.975 0.501 11.875 0.301 11.676 C 0.1 11.477 0 11.232 0 10.943 C 0 10.653 0.1 10.407 0.301 10.204 C 0.501 10.001 0.747 9.9 1.038 9.9 L 3.438 9.9 C 3.728 9.9 3.974 10 4.174 10.199 C 4.375 10.399 4.475 10.643 4.475 10.932 C 4.475 11.222 4.375 11.468 4.174 11.671 C 3.974 11.874 3.728 11.975 3.438 11.975 L 1.038 11.975 Z M 18.438 11.975 C 18.147 11.975 17.901 11.875 17.701 11.676 C 17.5 11.477 17.4 11.232 17.4 10.943 C 17.4 10.653 17.5 10.407 17.701 10.204 C 17.901 10.001 18.147 9.9 18.438 9.9 L 20.838 9.9 C 21.128 9.9 21.374 10 21.575 10.199 C 21.775 10.399 21.875 10.643 21.875 10.932 C 21.875 11.222 21.775 11.468 21.575 11.671 C 21.374 11.874 21.128 11.975 20.838 11.975 L 18.438 11.975 Z M 10.943 4.475 C 10.653 4.475 10.407 4.375 10.204 4.174 C 10.001 3.974 9.9 3.728 9.9 3.438 L 9.9 1.038 C 9.9 0.747 10 0.501 10.199 0.301 C 10.399 0.1 10.643 0 10.932 0 C 11.222 0 11.468 0.1 11.671 0.301 C 11.874 0.501 11.975 0.747 11.975 1.038 L 11.975 3.438 C 11.975 3.728 11.875 3.974 11.676 4.174 C 11.477 4.375 11.232 4.475 10.943 4.475 Z M 10.943 21.875 C 10.653 21.875 10.407 21.775 10.204 21.575 C 10.001 21.374 9.9 21.128 9.9 20.838 L 9.9 18.438 C 9.9 18.147 10 17.901 10.199 17.701 C 10.399 17.5 10.643 17.4 10.932 17.4 C 11.222 17.4 11.468 17.5 11.671 17.701 C 11.874 17.901 11.975 18.147 11.975 18.438 L 11.975 20.838 C 11.975 21.128 11.875 21.374 11.676 21.575 C 11.477 21.775 11.232 21.875 10.943 21.875 Z M 4.892 6.364 L 3.642 5.089 C 3.431 4.895 3.325 4.659 3.325 4.381 C 3.325 4.103 3.431 3.857 3.642 3.642 C 3.84 3.431 4.08 3.325 4.362 3.325 C 4.644 3.325 4.885 3.431 5.083 3.642 L 6.364 4.892 C 6.575 5.098 6.68 5.342 6.678 5.623 C 6.676 5.904 6.571 6.149 6.364 6.36 C 6.17 6.57 5.928 6.677 5.641 6.681 C 5.353 6.685 5.103 6.579 4.892 6.364 Z M 16.792 18.233 L 15.511 16.983 C 15.3 16.781 15.194 16.54 15.194 16.26 C 15.194 15.98 15.3 15.732 15.511 15.517 C 15.705 15.306 15.947 15.2 16.235 15.2 C 16.522 15.2 16.772 15.306 16.983 15.517 L 18.233 16.786 C 18.444 16.98 18.55 17.217 18.55 17.494 C 18.55 17.772 18.448 18.018 18.245 18.233 C 18.03 18.444 17.788 18.55 17.519 18.55 C 17.249 18.55 17.007 18.444 16.792 18.233 Z M 15.515 6.364 C 15.305 6.17 15.2 5.928 15.2 5.641 C 15.2 5.353 15.306 5.103 15.517 4.892 L 16.786 3.642 C 16.997 3.431 17.237 3.329 17.507 3.338 C 17.776 3.346 18.018 3.448 18.233 3.643 C 18.444 3.849 18.55 4.087 18.55 4.357 C 18.55 4.626 18.444 4.868 18.233 5.083 L 16.983 6.364 C 16.777 6.575 16.533 6.68 16.252 6.678 C 15.971 6.676 15.726 6.571 15.515 6.364 Z M 3.642 18.233 C 3.431 18.035 3.325 17.795 3.325 17.513 C 3.325 17.231 3.431 16.99 3.642 16.792 L 4.892 15.511 C 5.094 15.316 5.335 15.219 5.615 15.219 C 5.895 15.219 6.143 15.316 6.358 15.511 C 6.569 15.722 6.671 15.969 6.664 16.251 C 6.656 16.534 6.554 16.778 6.358 16.983 L 5.089 18.233 C 4.895 18.444 4.659 18.55 4.381 18.55 C 4.104 18.55 3.857 18.444 3.642 18.233 Z" fill="currentColor" fill-rule="nonzero"/>
</svg>
