<svg xmlns="http://www.w3.org/2000/svg" width="14" height="16" viewBox="0 0 14 16" fill="none">
  <path d="M 11.667 11.309 C 11.076 11.309 10.547 11.55 10.142 11.928 L 4.597 8.594 C 4.636 8.41 4.667 8.225 4.667 8.032 C 4.667 7.839 4.636 7.655 4.597 7.47 L 10.08 4.169 C 10.5 4.57 11.052 4.819 11.667 4.819 C 12.958 4.819 14 3.743 14 2.41 C 14 1.076 12.958 0 11.667 0 C 10.376 0 9.333 1.076 9.333 2.41 C 9.333 2.602 9.364 2.787 9.403 2.972 L 3.92 6.273 C 3.5 5.871 2.948 5.622 2.333 5.622 C 1.042 5.622 0 6.699 0 8.032 C 0 9.365 1.042 10.442 2.333 10.442 C 2.948 10.442 3.5 10.193 3.92 9.791 L 9.458 13.133 C 9.419 13.301 9.396 13.478 9.396 13.655 C 9.396 14.948 10.414 16 11.667 16 C 12.919 16 13.938 14.948 13.938 13.655 C 13.938 12.361 12.919 11.309 11.667 11.309 Z" fill="currentColor" fill-rule="nonzero"/>
</svg>
