<svg xmlns="http://www.w3.org/2000/svg" width="17.495" height="20" viewBox="0 0 17.495 20" fill="none">
  <path d="M 3.366 3.084 L 8.745 0 L 14.125 3.084 L 12.106 4.169 L 8.745 2.251 L 5.297 4.169 L 3.366 3.084 Z M 14.042 6.916 L 12.106 5.831 L 8.745 7.749 L 5.297 5.831 L 3.361 6.916 L 3.361 9.166 L 6.727 11.084 L 6.727 15.002 L 8.662 16.169 L 10.598 15.002 L 10.598 11.171 L 13.964 9.253 L 13.964 6.92 L 14.042 6.92 L 14.042 6.916 Z M 14.042 13.084 L 14.042 10.834 L 12.106 12 L 12.106 14.164 L 14.042 13.084 Z M 15.472 13.831 L 12.111 15.749 L 12.111 18 L 17.495 14.916 L 17.495 8.752 L 15.476 10 L 15.472 13.831 Z M 13.536 5.002 L 15.472 6.169 L 15.472 8.419 L 17.407 7.253 L 17.407 5.002 L 15.472 3.836 L 13.536 5.002 Z M 6.727 16.583 L 6.727 18.834 L 8.662 20 L 10.598 18.834 L 10.598 16.583 L 8.662 17.749 L 6.727 16.583 Z M 3.361 13.084 L 5.297 14.169 L 5.297 11.918 L 3.361 10.752 L 3.361 13.084 Z M 6.727 5.002 L 8.662 6.169 L 10.681 5.002 L 8.745 3.836 L 6.727 5.002 Z M 1.936 6.169 L 3.954 5.002 L 1.936 3.836 L 0 5.002 L 0 7.253 L 1.936 8.419 L 1.936 6.169 Z M 1.936 10 L 0 8.834 L 0 14.998 L 5.384 18.082 L 5.384 15.831 L 2.018 13.913 L 2.018 9.995 L 1.936 10 Z" fill="currentColor" fill-rule="nonzero"/>
</svg>
