<svg xmlns="http://www.w3.org/2000/svg" width="191.252" height="198.607" viewBox="0 0 191.252 198.607" fill="none">
  <path d="M 95.552 198.607 C 66.061 198.585 42.306 191.58 25.708 178.998 C 8.911 166.265 0 148.195 0 127.748 C 0 108.047 8.891 93.841 18.952 84.239 C 26.836 76.713 35.536 71.894 41.594 69.121 C 40.225 64.959 38.515 59.511 36.986 53.883 C 34.94 46.353 32.933 37.517 32.933 31.043 C 32.933 23.38 34.62 15.683 39.171 9.703 C 43.98 3.385 51.218 0 59.926 0 C 66.732 0 72.51 2.499 77.034 6.81 C 81.358 10.931 84.236 16.403 86.223 22.108 C 89.714 32.132 91.074 44.726 91.455 57.294 L 99.796 57.294 C 100.178 44.726 101.537 32.132 105.029 22.108 C 107.016 16.403 109.894 10.931 114.218 6.81 C 118.741 2.499 124.519 0 131.325 0 C 140.033 0 147.272 3.385 152.08 9.703 C 156.631 15.683 158.319 23.38 158.319 31.043 C 158.319 37.517 156.312 46.353 154.265 53.883 C 152.736 59.511 151.027 64.959 149.657 69.121 C 155.715 71.894 164.416 76.713 172.3 84.239 C 182.36 93.841 191.252 108.047 191.252 127.748 C 191.252 148.195 182.341 166.265 165.544 178.998 C 148.945 191.58 125.19 198.585 95.7 198.607 L 95.552 198.607 Z" fill="currentColor" fill-rule="evenodd"/>
</svg>
