<svg xmlns="http://www.w3.org/2000/svg" width="23.182" height="24.074" viewBox="0 0 23.182 24.074" fill="none">
  <path d="M 11.582 24.074 C 8.007 24.071 5.128 23.222 3.116 21.697 C 1.08 20.153 0 17.963 0 15.485 C 0 13.097 1.078 11.375 2.297 10.211 C 3.253 9.299 4.307 8.714 5.042 8.378 C 4.876 7.874 4.669 7.213 4.483 6.531 C 4.235 5.619 3.992 4.548 3.992 3.763 C 3.992 2.834 4.196 1.901 4.748 1.176 C 5.331 0.41 6.208 0 7.264 0 C 8.089 0 8.789 0.303 9.337 0.825 C 9.862 1.325 10.21 1.988 10.451 2.68 C 10.874 3.895 11.039 5.421 11.085 6.945 L 12.097 6.945 C 12.143 5.421 12.308 3.895 12.731 2.68 C 12.972 1.988 13.32 1.325 13.845 0.825 C 14.393 0.303 15.093 0 15.918 0 C 16.974 0 17.851 0.41 18.434 1.176 C 18.986 1.901 19.19 2.834 19.19 3.763 C 19.19 4.548 18.947 5.619 18.699 6.531 C 18.513 7.213 18.306 7.874 18.14 8.378 C 18.875 8.714 19.929 9.299 20.885 10.211 C 22.104 11.375 23.182 13.097 23.182 15.485 C 23.182 17.963 22.102 20.153 20.066 21.697 C 18.054 23.222 15.175 24.071 11.6 24.074 L 11.582 24.074 Z" fill="currentColor" fill-rule="evenodd"/>
</svg>
