<svg xmlns="http://www.w3.org/2000/svg" width="1042" height="138.223" viewBox="0 0 1042 138.223" fill="none">
  <path d="M 8.013 107.096 C 5.034 107.096 2.928 106.479 1.695 105.247 C 0.565 104.014 0 102.062 0 99.391 L 0 10.17 C 0 7.499 0.616 5.547 1.849 4.315 C 3.082 2.979 5.136 2.311 8.013 2.311 L 45.766 2.311 C 60.148 2.311 70.729 5.342 77.51 11.403 C 84.29 17.464 87.68 26.504 87.68 38.524 C 87.68 50.44 84.29 59.429 77.51 65.49 C 70.832 71.449 60.251 74.428 45.766 74.428 L 31.127 74.428 L 31.127 99.391 C 31.127 102.062 30.511 104.014 29.278 105.247 C 28.045 106.479 25.939 107.096 22.96 107.096 L 8.013 107.096 Z M 43.301 52.084 C 47.513 52.084 50.749 50.954 53.009 48.694 C 55.371 46.434 56.553 43.044 56.553 38.524 C 56.553 33.901 55.371 30.459 53.009 28.199 C 50.749 25.939 47.513 24.809 43.301 24.809 L 31.127 24.809 L 31.127 52.084 L 43.301 52.084 Z" fill="currentColor" fill-rule="nonzero"/>
  <path d="M 124.071 109.407 C 114.415 109.407 106.659 106.325 100.803 100.162 C 95.05 93.895 92.174 85.112 92.174 73.811 C 92.174 65.182 94.126 57.631 98.029 51.159 C 102.036 44.687 107.635 39.705 114.826 36.212 C 122.12 32.617 130.492 30.819 139.943 30.819 C 147.751 30.819 154.634 31.692 160.592 33.439 C 166.653 35.082 172.2 37.496 177.234 40.681 L 177.234 102.319 C 177.234 104.271 176.875 105.555 176.155 106.171 C 175.436 106.788 173.998 107.096 171.841 107.096 L 156.123 107.096 C 154.993 107.096 154.12 106.942 153.504 106.633 C 152.887 106.223 152.374 105.606 151.963 104.784 L 149.959 100.162 C 146.98 103.346 143.385 105.658 139.173 107.096 C 135.064 108.637 130.03 109.407 124.071 109.407 Z M 135.629 88.45 C 139.635 88.45 142.768 87.474 145.028 85.523 C 147.288 83.571 148.418 80.797 148.418 77.201 L 148.418 53.163 C 146.467 52.238 144.001 51.776 141.022 51.776 C 135.577 51.776 131.211 53.676 127.924 57.477 C 124.739 61.278 123.147 66.62 123.147 73.503 C 123.147 83.468 127.307 88.45 135.629 88.45 Z" fill="currentColor" fill-rule="nonzero"/>
  <path d="M 198.679 107.096 C 195.699 107.096 193.593 106.479 192.361 105.247 C 191.128 104.014 190.512 102.062 190.512 99.391 L 190.512 37.907 C 190.512 36.058 190.82 34.825 191.436 34.209 C 192.155 33.49 193.593 33.13 195.751 33.13 L 211.623 33.13 C 212.855 33.13 213.78 33.336 214.396 33.747 C 215.115 34.055 215.526 34.671 215.629 35.596 L 216.399 40.219 C 219.276 37.342 223.026 35.082 227.648 33.439 C 232.374 31.692 237.613 30.819 243.366 30.819 C 251.687 30.819 258.416 33.182 263.552 37.907 C 268.689 42.53 271.257 49.413 271.257 58.556 L 271.257 99.391 C 271.257 102.062 270.641 104.014 269.408 105.247 C 268.278 106.479 266.223 107.096 263.244 107.096 L 248.297 107.096 C 245.318 107.096 243.161 106.479 241.825 105.247 C 240.592 104.014 239.976 102.062 239.976 99.391 L 239.976 60.559 C 239.976 57.477 239.308 55.269 237.973 53.933 C 236.637 52.598 234.531 51.93 231.655 51.93 C 228.573 51.93 226.107 52.752 224.258 54.395 C 222.512 56.039 221.639 58.299 221.639 61.176 L 221.639 99.391 C 221.639 102.062 221.022 104.014 219.79 105.247 C 218.66 106.479 216.605 107.096 213.626 107.096 L 198.679 107.096 Z" fill="currentColor" fill-rule="nonzero"/>
  <path d="M 325.725 109.407 C 311.343 109.407 300.248 106.068 292.44 99.391 C 284.633 92.714 280.729 83.006 280.729 70.267 C 280.729 62.46 282.527 55.577 286.122 49.618 C 289.718 43.66 294.906 39.037 301.686 35.75 C 308.569 32.463 316.685 30.819 326.033 30.819 C 333.121 30.819 339.08 31.487 343.908 32.822 C 348.839 34.158 353.205 36.212 357.006 38.986 C 358.136 39.705 358.701 40.63 358.701 41.76 C 358.701 42.581 358.29 43.66 357.468 44.996 L 351.15 55.936 C 350.431 57.375 349.558 58.094 348.531 58.094 C 347.914 58.094 346.938 57.683 345.603 56.861 C 342.829 55.115 340.21 53.83 337.744 53.009 C 335.381 52.187 332.402 51.776 328.807 51.776 C 323.67 51.776 319.51 53.419 316.325 56.707 C 313.243 59.994 311.702 64.514 311.702 70.267 C 311.702 76.123 313.294 80.643 316.479 83.827 C 319.664 86.909 324.03 88.45 329.577 88.45 C 332.864 88.45 335.844 87.988 338.515 87.063 C 341.186 86.139 343.908 84.855 346.682 83.211 C 348.12 82.389 349.147 81.978 349.764 81.978 C 350.688 81.978 351.51 82.697 352.229 84.136 L 359.163 96.001 C 359.677 97.028 359.934 97.85 359.934 98.466 C 359.934 99.391 359.317 100.264 358.085 101.086 C 353.77 103.86 349.044 105.914 343.908 107.25 C 338.874 108.688 332.813 109.407 325.725 109.407 Z" fill="currentColor" fill-rule="nonzero"/>
  <path d="M 399.004 109.407 C 389.347 109.407 381.591 106.325 375.736 100.162 C 369.983 93.895 367.106 85.112 367.106 73.811 C 367.106 65.182 369.058 57.631 372.962 51.159 C 376.968 44.687 382.567 39.705 389.758 36.212 C 397.052 32.617 405.425 30.819 414.876 30.819 C 422.683 30.819 429.566 31.692 435.524 33.439 C 441.585 35.082 447.133 37.496 452.167 40.681 L 452.167 102.319 C 452.167 104.271 451.807 105.555 451.088 106.171 C 450.369 106.788 448.931 107.096 446.773 107.096 L 431.056 107.096 C 429.926 107.096 429.052 106.942 428.436 106.633 C 427.82 106.223 427.306 105.606 426.895 104.784 L 424.892 100.162 C 421.913 103.346 418.317 105.658 414.105 107.096 C 409.996 108.637 404.962 109.407 399.004 109.407 Z M 410.561 88.45 C 414.568 88.45 417.701 87.474 419.961 85.523 C 422.221 83.571 423.351 80.797 423.351 77.201 L 423.351 53.163 C 421.399 52.238 418.934 51.776 415.954 51.776 C 410.51 51.776 406.144 53.676 402.856 57.477 C 399.672 61.278 398.079 66.62 398.079 73.503 C 398.079 83.468 402.24 88.45 410.561 88.45 Z" fill="currentColor" fill-rule="nonzero"/>
  <path d="M 548.963 101.24 C 549.682 102.062 550.042 102.987 550.042 104.014 C 550.042 104.938 549.734 105.709 549.117 106.325 C 548.501 106.839 547.679 107.096 546.652 107.096 L 522.767 107.096 C 521.329 107.096 520.25 106.993 519.531 106.788 C 518.915 106.479 518.247 105.914 517.528 105.093 L 496.571 76.585 L 496.571 99.391 C 496.571 102.062 495.955 104.014 494.722 105.247 C 493.489 106.479 491.383 107.096 488.404 107.096 L 473.457 107.096 C 470.478 107.096 468.372 106.479 467.139 105.247 C 466.009 104.014 465.444 102.062 465.444 99.391 L 465.444 10.17 C 465.444 7.499 466.06 5.547 467.293 4.315 C 468.526 2.979 470.581 2.311 473.457 2.311 L 488.404 2.311 C 491.383 2.311 493.489 2.979 494.722 4.315 C 495.955 5.547 496.571 7.499 496.571 10.17 L 496.571 61.792 L 516.912 35.288 C 517.528 34.466 518.196 33.901 518.915 33.593 C 519.634 33.284 520.713 33.13 522.151 33.13 L 546.036 33.13 C 547.063 33.13 547.833 33.439 548.347 34.055 C 548.963 34.569 549.272 35.288 549.272 36.212 C 549.272 37.24 548.912 38.164 548.193 38.986 L 521.843 69.189 L 548.963 101.24 Z" fill="currentColor" fill-rule="nonzero"/>
  <path d="M 598.998 109.407 C 590.369 109.407 582.664 107.969 575.884 105.093 C 569.207 102.216 563.916 97.901 560.012 92.149 C 556.109 86.396 554.157 79.359 554.157 71.038 C 554.157 57.991 557.855 48.026 565.252 41.143 C 572.648 34.26 583.281 30.819 597.149 30.819 C 610.71 30.819 620.983 34.209 627.968 40.989 C 635.057 47.667 638.601 56.964 638.601 68.88 C 638.601 74.017 636.341 76.585 631.821 76.585 L 583.435 76.585 C 583.435 81.002 585.078 84.393 588.366 86.755 C 591.756 89.118 596.841 90.299 603.621 90.299 C 607.833 90.299 611.326 89.94 614.1 89.221 C 616.976 88.399 619.853 87.218 622.729 85.677 C 623.962 85.163 624.784 84.906 625.194 84.906 C 626.119 84.906 626.889 85.523 627.506 86.755 L 632.745 96.617 C 633.259 97.645 633.516 98.415 633.516 98.929 C 633.516 99.853 632.899 100.727 631.666 101.548 C 627.455 104.322 622.678 106.325 617.336 107.558 C 611.994 108.791 605.881 109.407 598.998 109.407 Z M 610.864 61.33 C 610.864 57.426 609.734 54.395 607.474 52.238 C 605.214 50.081 601.823 49.002 597.303 49.002 C 592.783 49.002 589.342 50.132 586.979 52.392 C 584.616 54.55 583.435 57.529 583.435 61.33 L 610.864 61.33 Z" fill="currentColor" fill-rule="nonzero"/>
  <path d="M 691.417 109.407 C 682.787 109.407 674.62 108.534 666.916 106.788 C 659.211 104.938 652.996 102.37 648.27 99.083 C 646.524 97.953 645.651 96.771 645.651 95.539 C 645.651 94.717 645.959 93.844 646.575 92.919 L 654.126 80.9 C 654.948 79.667 655.769 79.051 656.591 79.051 C 657.105 79.051 657.978 79.41 659.211 80.129 C 663.012 82.287 667.326 84.033 672.155 85.368 C 676.983 86.704 681.76 87.372 686.486 87.372 C 691.314 87.372 694.858 86.653 697.118 85.214 C 699.481 83.776 700.662 81.465 700.662 78.28 C 700.662 75.198 699.378 72.784 696.81 71.038 C 694.344 69.291 689.67 67.083 682.787 64.412 C 672.412 60.508 664.296 56.142 658.44 51.314 C 652.687 46.382 649.811 39.705 649.811 31.281 C 649.811 21.111 653.458 13.355 660.752 8.013 C 668.046 2.671 677.753 0 689.876 0 C 698.299 0 705.491 0.77 711.449 2.311 C 717.51 3.75 722.646 6.01 726.858 9.092 C 728.605 10.427 729.478 11.66 729.478 12.79 C 729.478 13.509 729.17 14.331 728.553 15.255 L 721.003 27.275 C 720.078 28.508 719.256 29.124 718.537 29.124 C 718.024 29.124 717.15 28.764 715.918 28.045 C 709.959 24.142 702.871 22.19 694.653 22.19 C 690.235 22.19 686.845 22.909 684.482 24.347 C 682.12 25.785 680.938 28.148 680.938 31.435 C 680.938 33.695 681.555 35.545 682.787 36.983 C 684.02 38.421 685.664 39.705 687.718 40.835 C 689.876 41.862 693.163 43.198 697.58 44.842 L 700.508 45.92 C 708.11 48.899 714.069 51.776 718.383 54.55 C 722.801 57.22 726.139 60.559 728.399 64.566 C 730.659 68.469 731.789 73.4 731.789 79.359 C 731.789 88.502 728.348 95.796 721.465 101.24 C 714.685 106.685 704.669 109.407 691.417 109.407 Z" fill="currentColor" fill-rule="nonzero"/>
  <path d="M 764.53 107.096 C 762.989 107.096 761.807 106.839 760.986 106.325 C 760.164 105.812 759.547 104.784 759.136 103.243 L 739.258 36.675 C 739.053 36.058 738.95 35.596 738.95 35.288 C 738.95 33.849 739.977 33.13 742.032 33.13 L 762.372 33.13 C 763.708 33.13 764.684 33.387 765.3 33.901 C 765.917 34.312 766.328 35.031 766.533 36.058 L 774.854 71.038 L 785.333 42.838 C 785.846 41.606 786.36 40.784 786.873 40.373 C 787.49 39.859 788.517 39.602 789.955 39.602 L 799.663 39.602 C 801.102 39.602 802.077 39.859 802.591 40.373 C 803.208 40.784 803.773 41.606 804.286 42.838 L 814.61 71.038 L 823.086 36.058 C 823.394 35.031 823.805 34.312 824.318 33.901 C 824.832 33.387 825.757 33.13 827.092 33.13 L 847.587 33.13 C 849.641 33.13 850.669 33.849 850.669 35.288 C 850.669 35.596 850.566 36.058 850.36 36.675 L 830.328 103.243 C 829.917 104.784 829.301 105.812 828.479 106.325 C 827.76 106.839 826.63 107.096 825.089 107.096 L 809.988 107.096 C 808.549 107.096 807.471 106.839 806.752 106.325 C 806.033 105.709 805.416 104.682 804.903 103.243 L 794.732 75.352 L 784.562 103.243 C 784.151 104.682 783.535 105.709 782.713 106.325 C 781.994 106.839 780.915 107.096 779.477 107.096 L 764.53 107.096 Z" fill="currentColor" fill-rule="nonzero"/>
  <path d="M 889.729 109.407 C 880.073 109.407 872.316 106.325 866.461 100.162 C 860.708 93.895 857.832 85.112 857.832 73.811 C 857.832 65.182 859.783 57.631 863.687 51.159 C 867.694 44.687 873.292 39.705 880.484 36.212 C 887.777 32.617 896.15 30.819 905.601 30.819 C 913.408 30.819 920.291 31.692 926.25 33.439 C 932.311 35.082 937.858 37.496 942.892 40.681 L 942.892 102.319 C 942.892 104.271 942.532 105.555 941.813 106.171 C 941.094 106.788 939.656 107.096 937.499 107.096 L 921.781 107.096 C 920.651 107.096 919.778 106.942 919.161 106.633 C 918.545 106.223 918.031 105.606 917.62 104.784 L 915.617 100.162 C 912.638 103.346 909.042 105.658 904.831 107.096 C 900.721 108.637 895.688 109.407 889.729 109.407 Z M 901.286 88.45 C 905.293 88.45 908.426 87.474 910.686 85.523 C 912.946 83.571 914.076 80.797 914.076 77.201 L 914.076 53.163 C 912.124 52.238 909.659 51.776 906.68 51.776 C 901.235 51.776 896.869 53.676 893.582 57.477 C 890.397 61.278 888.805 66.62 888.805 73.503 C 888.805 83.468 892.965 88.45 901.286 88.45 Z" fill="currentColor" fill-rule="nonzero"/>
  <path d="M 964.182 138.223 C 961.203 138.223 959.097 137.607 957.864 136.374 C 956.734 135.141 956.169 133.189 956.169 130.518 L 956.169 42.222 C 960.792 38.935 966.596 36.212 973.582 34.055 C 980.568 31.898 987.861 30.819 995.463 30.819 C 1026.488 30.819 1042 43.968 1042 70.267 C 1042 82.184 1038.713 91.686 1032.138 98.775 C 1025.563 105.863 1016.266 109.407 1004.247 109.407 C 1000.857 109.407 997.569 108.996 994.385 108.174 C 991.303 107.353 988.735 106.223 986.68 104.784 L 986.68 130.518 C 986.68 133.189 986.064 135.141 984.831 136.374 C 983.598 137.607 981.492 138.223 978.513 138.223 L 964.182 138.223 Z M 997.621 88.604 C 1002.038 88.604 1005.325 86.961 1007.483 83.673 C 1009.743 80.283 1010.873 75.763 1010.873 70.113 C 1010.873 63.436 1009.537 58.761 1006.866 56.09 C 1004.298 53.317 1000.292 51.93 994.847 51.93 C 991.354 51.93 988.581 52.392 986.526 53.317 L 986.526 77.818 C 986.526 81.311 987.502 83.982 989.454 85.831 C 991.406 87.68 994.128 88.604 997.621 88.604 Z" fill="currentColor" fill-rule="nonzero"/>
</svg>
