<svg xmlns="http://www.w3.org/2000/svg" viewBox="0 0 512 512" width="512" height="512">
  <defs>
    <linearGradient id="pcs-bg" x1="256" y1="0" x2="256" y2="512" gradientUnits="userSpaceOnUse">
      <stop offset="0" stop-color="#53DEE9"></stop>
      <stop offset="1" stop-color="#1FC7D4"></stop>
    </linearGradient>
    
    <clipPath id="bunny-body">
      <path d="M 131.326 0 C 139.77 0 146.692 3.268 151.285 9.303 C 155.657 15.047 157.328 22.514 157.328 30.089 C 157.328 36.44 155.346 45.213 153.279 52.819 C 151.743 58.472 150.025 63.951 148.646 68.14 L 148.297 69.201 L 149.313 69.666 C 155.352 72.429 164.003 77.225 171.829 84.695 C 181.8 94.213 190.574 108.246 190.574 127.716 C 190.574 147.962 181.765 165.836 165.116 178.457 C 148.639 190.948 124.949 197.978 95.36 198 L 95.214 198 C 65.625 197.978 41.935 190.948 25.458 178.457 C 8.81 165.836 0 147.962 0 127.716 C 0 108.246 8.774 94.213 18.745 84.695 C 26.571 77.225 35.223 72.429 41.261 69.666 L 42.277 69.201 L 41.928 68.14 C 40.549 63.951 38.831 58.472 37.295 52.819 C 35.228 45.213 33.246 36.44 33.246 30.089 C 33.246 22.514 34.917 15.047 39.289 9.303 C 43.882 3.268 50.804 0 59.248 0 C 65.788 0 71.315 2.393 75.656 6.53 C 79.826 10.504 82.645 15.827 84.614 21.48 C 88.076 31.418 89.444 43.98 89.828 56.629 L 89.864 57.84 L 100.709 57.84 L 100.746 56.629 C 101.13 43.98 102.498 31.418 105.959 21.48 C 107.928 15.827 110.748 10.504 114.918 6.53 C 119.26 2.393 124.787 0 131.326 0 Z"></path>
    </clipPath>
  </defs>
  
  <circle cx="256" cy="256" r="256" fill="url(#pcs-bg)"></circle>

  
  <g transform="translate(88.745 87.042) scale(1.757)">
    
    <path d="M 131.326 0 C 139.77 0 146.692 3.268 151.285 9.303 C 155.657 15.047 157.328 22.514 157.328 30.089 C 157.328 36.44 155.346 45.213 153.279 52.819 C 151.743 58.472 150.025 63.951 148.646 68.14 L 148.297 69.201 L 149.313 69.666 C 155.352 72.429 164.003 77.225 171.829 84.695 C 181.8 94.213 190.574 108.246 190.574 127.716 C 190.574 147.962 181.765 165.836 165.116 178.457 C 148.639 190.948 124.949 197.978 95.36 198 L 95.214 198 C 65.625 197.978 41.935 190.948 25.458 178.457 C 8.81 165.836 0 147.962 0 127.716 C 0 108.246 8.774 94.213 18.745 84.695 C 26.571 77.225 35.223 72.429 41.261 69.666 L 42.277 69.201 L 41.928 68.14 C 40.549 63.951 38.831 58.472 37.295 52.819 C 35.228 45.213 33.246 36.44 33.246 30.089 C 33.246 22.514 34.917 15.047 39.289 9.303 C 43.882 3.268 50.804 0 59.248 0 C 65.788 0 71.315 2.393 75.656 6.53 C 79.826 10.504 82.645 15.827 84.614 21.48 C 88.076 31.418 89.444 43.98 89.828 56.629 L 89.864 57.84 L 100.709 57.84 L 100.746 56.629 C 101.13 43.98 102.498 31.418 105.959 21.48 C 107.928 15.827 110.748 10.504 114.918 6.53 C 119.26 2.393 124.787 0 131.326 0 Z" fill="#633001"></path>
    
    <g clip-path="url(#bunny-body)">
      
      <path d="M 131.326 6 C 138.1 6 143.2 8.6 146.8 13.3 C 150.4 18 152 24.4 152 30.089 C 152 35.5 150.3 43.3 148.3 50.7 C 146.8 56.2 145.1 61.5 143.7 65.7 L 142 70.8 L 146.8 73 C 152.5 75.6 160.5 80 167.8 87 C 176.6 95.5 184.6 108 184.6 127.716 C 184.6 146 176.5 162.3 161 174.1 C 145.4 186 122.8 192.5 95.3 192.5 L 95.2 192.5 C 67.7 192.5 45.1 186 29.5 174.1 C 14 162.3 6 146 6 127.716 C 6 108 14 95.5 22.7 87 C 30 80 38 75.6 43.7 73 L 48.5 70.8 L 46.8 65.7 C 45.4 61.5 43.7 56.2 42.2 50.7 C 40.2 43.3 38.5 35.5 38.5 30.089 C 38.5 24.4 40.1 18 43.7 13.3 C 47.3 8.6 52.4 6 59.248 6 C 64.4 6 68.5 7.8 71.7 10.8 C 75 13.9 77.3 18.1 78.9 22.8 C 82.1 32 83.4 44 83.8 56.4 L 84 64 L 106.5 64 L 106.7 56.4 C 107.1 44 108.4 32 111.6 22.8 C 113.2 18.1 115.5 13.9 118.8 10.8 C 122 7.8 126.1 6 131.326 6 Z" fill="#D1884F"></path>
      
      <ellipse cx="95.3" cy="180" rx="74" ry="17" fill="#FEDC90"></ellipse>
      
      <path d="M 21 170 Q 95 155 170 170 L 170 180 Q 95 165 21 180 Z" fill="#FEDC90"></path>
    </g>
    
    <ellipse cx="61.7" cy="117.77" rx="11.6" ry="16.2" fill="#633001"></ellipse>
    <ellipse cx="129.01" cy="117.77" rx="11.6" ry="16.2" fill="#633001"></ellipse>
  </g>
</svg>