<svg xmlns="http://www.w3.org/2000/svg" width="190.574" height="198" viewBox="0 0 190.574 198" fill="none">
  <path d="M 131.326 0 C 139.77 0 146.692 3.268 151.285 9.303 C 155.657 15.047 157.328 22.514 157.328 30.089 C 157.328 36.44 155.346 45.213 153.279 52.819 C 151.743 58.472 150.025 63.951 148.646 68.14 L 148.297 69.201 L 149.313 69.666 C 155.352 72.429 164.003 77.225 171.829 84.695 C 181.8 94.213 190.574 108.246 190.574 127.716 C 190.574 147.962 181.765 165.836 165.116 178.457 C 148.639 190.948 124.949 197.978 95.36 198 L 95.214 198 C 65.625 197.978 41.935 190.948 25.458 178.457 C 8.81 165.836 0 147.962 0 127.716 C 0 108.246 8.774 94.213 18.745 84.695 C 26.571 77.225 35.223 72.429 41.261 69.666 L 42.277 69.201 L 41.928 68.14 C 40.549 63.951 38.831 58.472 37.295 52.819 C 35.228 45.213 33.246 36.44 33.246 30.089 C 33.246 22.514 34.917 15.047 39.289 9.303 C 43.882 3.268 50.804 0 59.248 0 C 65.788 0 71.315 2.393 75.656 6.53 C 79.826 10.504 82.645 15.827 84.614 21.48 C 88.076 31.418 89.444 43.98 89.828 56.629 L 89.864 57.84 L 100.709 57.84 L 100.746 56.629 C 101.13 43.98 102.498 31.418 105.959 21.48 C 107.928 15.827 110.748 10.504 114.918 6.53 C 119.26 2.393 124.787 0 131.326 0 Z M 61.7 101.6 C 58.433 101.6 55.479 103.075 53.378 105.882 C 51.297 108.662 50.096 112.682 50.096 117.77 C 50.096 122.857 51.297 126.876 53.378 129.656 C 55.479 132.463 58.433 133.938 61.7 133.938 C 64.968 133.938 67.921 132.463 70.022 129.656 C 72.104 126.876 73.305 122.857 73.305 117.77 C 73.305 112.682 72.104 108.662 70.022 105.882 C 67.921 103.075 64.968 101.6 61.7 101.6 Z M 129.01 101.6 C 125.742 101.6 122.789 103.075 120.688 105.882 C 118.606 108.662 117.405 112.682 117.405 117.77 C 117.405 122.857 118.607 126.876 120.688 129.656 C 122.789 132.463 125.742 133.938 129.01 133.938 C 132.277 133.938 135.232 132.463 137.333 129.656 C 139.414 126.876 140.614 122.857 140.614 117.77 C 140.614 112.682 139.414 108.662 137.333 105.882 C 135.232 103.075 132.277 101.6 129.01 101.6 Z" fill="currentColor" fill-rule="nonzero"/>
</svg>
