<svg xmlns="http://www.w3.org/2000/svg" width="24" height="24" viewBox="0 0 24 24">
  <rect width="24" height="24" rx="8" fill="#1E1E1E"></rect>
  <g transform="translate(4.6 4.6)" fill="#FFFFFF">
    <path d="M 11.47 4.956 L 10.163 4.956 C 10.014 4.956 9.865 4.893 9.759 4.778 L 9.228 4.187 C 9.069 4.018 8.813 3.996 8.634 4.154 C 8.624 4.164 8.614 4.174 8.601 4.187 L 8.143 4.695 C 7.994 4.863 7.782 4.959 7.559 4.959 L 0.392 4.959 C 0.19 5.549 0.053 6.163 0 6.786 L 6.763 6.786 C 6.879 6.786 6.995 6.734 7.081 6.648 L 7.708 5.994 C 7.782 5.909 7.898 5.869 8.004 5.869 L 8.024 5.869 C 8.141 5.869 8.257 5.921 8.343 6.007 L 8.874 6.598 C 8.97 6.713 9.119 6.776 9.278 6.776 L 14.8 6.776 C 14.747 6.153 14.621 5.542 14.408 4.949 L 11.468 4.949 L 11.468 4.956 L 11.47 4.956 Z M 4.103 10.615 C 4.22 10.615 4.336 10.563 4.422 10.477 L 5.049 9.823 C 5.122 9.738 5.241 9.698 5.347 9.698 L 5.38 9.698 C 5.496 9.698 5.613 9.751 5.699 9.836 L 6.229 10.427 C 6.336 10.543 6.475 10.605 6.634 10.605 L 14.115 10.605 C 14.401 10.025 14.603 9.401 14.732 8.768 L 7.544 8.768 C 7.395 8.768 7.246 8.705 7.152 8.589 L 6.621 7.998 C 6.548 7.913 6.429 7.86 6.303 7.86 C 6.186 7.86 6.07 7.913 5.994 7.998 L 5.537 8.506 C 5.388 8.675 5.175 8.77 4.943 8.77 L 0.121 8.77 C 0.238 9.404 0.45 10.027 0.726 10.618 L 4.103 10.618 L 4.103 10.615 Z M 9.41 2.96 C 9.526 2.96 9.643 2.907 9.728 2.822 L 10.355 2.168 C 10.429 2.082 10.548 2.042 10.654 2.042 L 10.687 2.042 C 10.803 2.042 10.919 2.095 10.995 2.18 L 11.526 2.771 C 11.632 2.887 11.771 2.95 11.928 2.95 L 13.351 2.95 C 10.889 -0.314 6.237 -0.967 2.958 1.481 C 2.397 1.904 1.896 2.389 1.482 2.95 L 9.412 2.95 L 9.41 2.96 Z M 6.545 12.441 L 4.601 12.441 C 4.452 12.441 4.303 12.378 4.209 12.262 L 3.679 11.671 C 3.519 11.503 3.254 11.48 3.084 11.639 C 3.074 11.649 3.064 11.659 3.052 11.671 L 2.594 12.189 C 2.445 12.358 2.232 12.453 2.01 12.453 L 1.977 12.453 C 4.768 15.43 9.473 15.599 12.466 12.823 C 12.593 12.707 12.722 12.579 12.838 12.453 L 6.545 12.441 Z" fill-rule="nonzero"></path>
  </g>
</svg>