<svg xmlns="http://www.w3.org/2000/svg" width="24" height="24" viewBox="0 0 24 24">
  <rect width="24" height="24" rx="8" fill="#FFFFFF" stroke="rgba(0,0,0,0.08)"></rect>
  <rect x="4" y="4" width="16" height="16" rx="4" fill="#0052FF"></rect>
  <g transform="translate(7.2 7.2)" fill="#FFFFFF">
    <path d="M 0 0.758 C 0 0.499 0 0.369 0.049 0.269 C 0.096 0.173 0.173 0.096 0.269 0.049 C 0.369 0 0.499 0 0.758 0 L 8.842 0 C 9.101 0 9.231 0 9.331 0.049 C 9.427 0.096 9.504 0.173 9.551 0.269 C 9.6 0.369 9.6 0.499 9.6 0.758 L 9.6 8.842 C 9.6 9.101 9.6 9.231 9.551 9.331 C 9.504 9.427 9.427 9.504 9.331 9.551 C 9.231 9.6 9.101 9.6 8.842 9.6 L 0.758 9.6 C 0.499 9.6 0.369 9.6 0.269 9.551 C 0.173 9.504 0.096 9.427 0.049 9.331 C 0 9.231 0 9.101 0 8.842 L 0 0.758 Z" fill-rule="nonzero"></path>
  </g>
</svg>