<svg xmlns="http://www.w3.org/2000/svg" width="24" height="24" viewBox="0 0 24 24">
  <rect width="24" height="24" rx="8" fill="#1E1E1E"></rect>
  <g transform="translate(5 4)">
    <path d="M 2.692 2.467 L 6.996 0 L 11.3 2.467 L 9.685 3.335 L 6.996 1.8 L 4.237 3.335 L 2.692 2.467 Z M 11.233 5.533 L 9.685 4.665 L 6.996 6.2 L 4.237 4.665 L 2.689 5.533 L 2.689 7.333 L 5.381 8.867 L 5.381 12.002 L 6.93 12.935 L 8.478 12.002 L 8.478 8.937 L 11.171 7.402 L 11.171 5.536 L 11.233 5.536 L 11.233 5.533 Z M 11.233 10.467 L 11.233 8.667 L 9.685 9.6 L 9.685 11.331 L 11.233 10.467 Z M 12.377 11.065 L 9.689 12.6 L 9.689 14.4 L 13.996 11.933 L 13.996 7.001 L 12.381 8 L 12.377 11.065 Z M 10.829 4.002 L 12.377 4.935 L 12.377 6.735 L 13.926 5.802 L 13.926 4.002 L 12.377 3.069 L 10.829 4.002 Z M 5.381 13.267 L 5.381 15.067 L 6.93 16 L 8.478 15.067 L 8.478 13.267 L 6.93 14.2 L 5.381 13.267 Z M 2.689 10.467 L 4.237 11.335 L 4.237 9.534 L 2.689 8.601 L 2.689 10.467 Z M 5.381 4.002 L 6.93 4.935 L 8.545 4.002 L 6.996 3.069 L 5.381 4.002 Z M 1.549 4.935 L 3.163 4.002 L 1.549 3.069 L 0 4.002 L 0 5.802 L 1.549 6.735 L 1.549 4.935 Z M 1.549 8 L 0 7.067 L 0 11.998 L 4.307 14.466 L 4.307 12.665 L 1.615 11.131 L 1.615 7.996 L 1.549 8 Z" fill="#F0B90B" fill-rule="nonzero"></path>
  </g>
</svg>